<svg width="48" height="48" viewBox="0 0 48 48"  xmlns="http://www.w3.org/2000/svg">
<path d="M24 0C24 0 22.5713 5.52187 19.25 7.2C17.3481 8.15625 16.875 2.4 16.875 2.4C16.875 2.4 12.5981 5.27813 12.125 12C12.125 13.4438 7.84815 11.0438 7.375 7.2C7.375 7.2 6.21533 12.9563 8.11719 18C7.64404 19.6781 7.375 21.6 7.375 22.8C5.94629 24 5 26.1563 5 28.8C5 31.6781 7.5791 34.35 10.1953 35.55C12.5703 44.1938 20.4375 48 24 48C27.5625 48 35.4297 44.1938 37.8047 35.55C40.4209 34.35 43 31.6781 43 28.8C43 26.4 42.2764 24.2438 40.8477 22.8C41.0889 19.6781 40.4023 17.55 39.2148 16.35C40.4023 12.9938 40.625 9.6 40.625 9.6C40.625 9.6 35.6338 12.2438 35.875 9.6C36.3481 4.8 33.5 2.4 33.5 2.4C33.5 2.4 29.6963 10.5563 28.75 7.2C27.5625 3.12187 24 0 24 0ZM19.25 12C19.4912 16.8 24 19.2 24 19.2C24 19.2 24.2412 14.8781 26.375 14.4C30.1787 18.7219 28.75 21.6 28.75 21.6C28.75 21.6 31.8394 20.4 33.5 14.4C34.6875 15.6 34.9287 20.6438 33.5 24C34.4463 23.5219 35.3833 22.7719 36.0977 22.05V23.775L35.875 25.425L37.2852 26.175C37.9995 26.4188 38.25 27.8438 38.25 28.8C38.25 29.5219 36.6172 30.9563 35.4297 31.2L33.7227 31.425L33.5 33.15C32.0713 40.1063 26.1338 43.2 24 43.2C22.3394 43.2 15.9287 40.8281 14.5 33.15L14.2773 31.425L12.5703 31.2C11.3828 30.9563 9.75 29.5219 9.75 28.8C9.75 27.8438 10.0005 26.4188 10.7148 26.175L12.125 25.425V22.8C12.8394 23.2781 13.5537 23.5219 14.5 24C13.0713 22.0781 13.5537 18.7219 14.5 16.8C15.2144 19.9219 19.25 21.6 19.25 21.6C19.25 21.6 17.1162 16.3219 19.25 12ZM32.5352 24.75L26.375 26.4C26.375 26.4 28.0356 30.2719 31.125 28.35C32.5537 27.3938 32.5352 24.75 32.5352 24.75ZM15.2422 24.975C15.2422 24.975 15.4463 27.8531 16.875 28.575C20.1963 30.0188 21.625 26.625 21.625 26.625L15.2422 24.975Z" />
</svg>
