<svg width="48" height="48" viewBox="0 0 48 48"  xmlns="http://www.w3.org/2000/svg">
<path d="M14 0C13.7156 0 13.4311 0.106875 13.2144 0.319602C12.7811 0.745057 12.7811 1.43676 13.2144 1.86222L16.1267 4.72159C12.8202 7.10382 10.6667 10.9369 10.6667 15.2727H37.3333C37.3333 10.9369 35.1798 7.10382 31.8733 4.72159L34.7856 1.86222C35.2189 1.43458 35.2189 0.747239 34.7856 0.319602C34.3523 -0.105852 33.6477 -0.105852 33.2144 0.319602L29.9201 3.55398C28.1347 2.68268 26.1293 2.18182 24 2.18182C21.8707 2.18182 19.8653 2.68268 18.0799 3.55398L14.7856 0.319602C14.5689 0.106875 14.2844 0 14 0ZM17.3333 8.72727H19.5556V10.9091H17.3333V8.72727ZM28.4444 8.72727H30.6667V10.9091H28.4444V8.72727ZM6.22222 17.4545C4.99556 17.4545 4 18.432 4 19.6364V32.7273C4 33.9316 4.99556 34.9091 6.22222 34.9091C7.44889 34.9091 8.44444 33.9316 8.44444 32.7273V19.6364C8.44444 18.432 7.44889 17.4545 6.22222 17.4545ZM10.6667 17.4545V34.9091C10.6667 36.1135 11.6622 37.0909 12.8889 37.0909H15.1111V44.7273C15.1111 46.5338 16.6044 48 18.4444 48C20.2844 48 21.7778 46.5338 21.7778 44.7273V37.0909H26.2222V44.7273C26.2222 46.5338 27.7156 48 29.5556 48C31.3956 48 32.8889 46.5338 32.8889 44.7273V37.0909H35.1111C36.3378 37.0909 37.3333 36.1135 37.3333 34.9091V17.4545H10.6667ZM41.7778 17.4545C40.5511 17.4545 39.5556 18.432 39.5556 19.6364V32.7273C39.5556 33.9316 40.5511 34.9091 41.7778 34.9091C43.0044 34.9091 44 33.9316 44 32.7273V19.6364C44 18.432 43.0044 17.4545 41.7778 17.4545Z" />
</svg>
