<svg width="48" height="48" viewBox="0 0 48 48"  xmlns="http://www.w3.org/2000/svg">
<path d="M29.958 22.7193C29.5181 21.4124 28.8581 19.8851 27.9782 18.7964C26.4383 16.6167 24.4585 14.8735 22.2586 14.2189C22.6986 13.7847 24.8984 13.0909 27.0983 13.0909C32.2679 13.0909 34.9495 15.0545 36.1594 16.3484L36.9975 17.4545C36.9975 8.72727 30.398 0 17.199 0C6.19983 0 4 6.54545 4 6.54545L4.08579 6.552C4.0594 6.56509 4 6.59127 4 6.59127C4 6.59127 10.5995 10.9505 10.5995 17.4873C10.5995 17.4873 4 21.8465 4 28.3833C4 41.4589 12.7993 41.4589 12.7993 41.4589H14.9992C21.3787 47.5636 30.398 48 30.398 48V39.2815C42.2771 38.1927 46.6768 26.8582 47.9967 17.4873C48.2167 17.4895 37.4375 20.5396 29.958 22.7193ZM18.2989 18.36C19.8388 17.2713 22.4786 18.5782 24.4585 21.4102C26.4383 24.0262 26.6583 27.0764 25.1184 28.1673C24.4189 28.6625 23.4883 28.6407 22.5006 28.2284C22.6436 28.1782 22.7866 28.1236 22.9142 28.0451C24.1571 27.2684 24.0845 25.3156 22.7514 23.6836C21.4183 22.0516 19.3306 21.36 18.0877 22.1367C17.9294 22.2349 17.8546 22.3985 17.7402 22.5316C17.1352 20.6967 17.2386 19.1105 18.2989 18.36ZM29.2981 35.3585C23.7985 35.7949 23.7985 33.8335 23.7985 33.8335L19.3988 33.6153C19.3988 36.4495 22.2586 38.6269 25.9983 39.2815C25.9983 40.8065 25.9983 42.1156 25.9983 42.1156C22.4786 41.8975 19.3988 39.2815 17.199 37.104C14.1192 38.1927 8.83964 36.0153 10.5995 30.5651C11.4794 28.1673 13.2393 27.0785 14.7792 26.6422C14.9992 26.8604 15.2192 27.2967 15.4391 27.5149C17.639 30.7833 20.9387 32.7447 24.0185 32.7447C25.3384 32.7447 26.6583 32.3084 27.7582 31.656C28.8581 30.7833 29.7381 29.9127 30.178 28.6058C34.5777 27.0807 40.5172 25.1193 42.2771 24.2465C38.5374 33.3971 33.2578 35.1425 29.2981 35.3585Z" />
</svg>
