<svg width="48" height="48" viewBox="0 0 48 48"  xmlns="http://www.w3.org/2000/svg">
<path d="M4.95 5C4.95 5 3.675 7.17831 3.675 10.8824C3.675 13.3456 4.2375 14.7059 4.65 15.3676C1.7625 18.318 0 22.2886 0 27.4265C0 40.5882 8.46563 45 24 45C39.5344 45 48 40.5882 48 27.4265C48 22.1048 46.3313 18.1158 43.575 15.2206C44.2594 13.2077 45.0469 9.40257 43.125 5C37.3969 5 32.5688 9.32904 32.4 9.48529C29.7281 8.90625 26.9063 8.60294 24 8.60294C21.0281 8.60294 18.1031 8.97059 15.375 9.63235C11.5406 5.89154 6.92813 5 4.95 5ZM31.725 23.8235C33.1688 23.8051 34.5281 23.9522 35.7 24.3382C38.8313 25.3768 40.8 28.4007 40.8 31.7647C40.7906 41.0938 35.9906 42.6471 23.7 42.6471C14.5594 42.6471 7.125 40.9651 7.125 32.0588C7.125 28.6581 8.925 26.7096 10.2 25.5147C13.0031 22.886 17.4188 24.1912 23.7 24.1912C26.55 24.1912 29.3156 23.8511 31.725 23.8235ZM14.4 28.5294C13.0781 28.5294 12 30.1103 12 32.0588C12 34.0074 13.0781 35.5882 14.4 35.5882C15.7219 35.5882 16.8 34.0074 16.8 32.0588C16.8 30.1103 15.7219 28.5294 14.4 28.5294ZM33.6 28.5294C32.2781 28.5294 31.2 30.1103 31.2 32.0588C31.2 34.0074 32.2781 35.5882 33.6 35.5882C34.9219 35.5882 36 34.0074 36 32.0588C36 30.1103 34.9219 28.5294 33.6 28.5294Z" />
</svg>
