<svg width="48" height="48" viewBox="0 0 48 48"  xmlns="http://www.w3.org/2000/svg">
<g clip-path="url(#clip0_3_50)">
<path d="M2.4 0C1.78125 0 1.17187 0.234374 0.703126 0.703126C-0.234374 1.64063 -0.234374 3.15937 0.703126 4.0875L2.60625 6L0.703126 7.9125C-0.234374 8.84063 -0.234374 10.3594 0.703126 11.2969C1.64063 12.2344 3.15937 12.2344 4.0875 11.2969L5.25 10.1344L7.1625 12.375C5.6625 15.1125 4.8 18.2625 4.8 21.6C4.8 24.8344 5.625 28.0219 7.2 30.8625V33.6C7.2 34.8375 7.54687 35.9813 8.1 37.0031L0 45.6C4.8 44.8031 9.36563 43.1156 13.5188 40.7156C13.8094 40.7438 14.1 40.8 14.4 40.8C14.4 44.7656 17.6344 48 21.6 48H26.4C30.3656 48 33.6 44.7656 33.6 40.8C33.9 40.8 34.1906 40.7438 34.4813 40.7156C38.6344 43.1156 43.2 44.8031 48 45.6L39.9 37.0031C40.4531 35.9813 40.8 34.8375 40.8 33.6V32.3344C42.8906 34.275 45.6 36 45.6 36V33.45C45.6 30.3 48 29.4188 48 26.4C48 20.25 43.0969 16.9219 42.5063 16.5469C42.1031 15.0844 41.55 13.6781 40.8375 12.375L42.75 10.1344L43.9125 11.2969C44.8406 12.2344 46.3594 12.2344 47.2969 11.2969C48.2344 10.3594 48.2344 8.84063 47.2969 7.9125L45.3844 6L47.2969 4.0875C48.2344 3.15937 48.2344 1.64063 47.2969 0.703126C46.3594 -0.234374 44.8406 -0.234374 43.9125 0.703126L42 2.60625L40.1719 0.778126C39.2344 -0.159374 37.7156 -0.159374 36.7781 0.778126C35.8406 1.71563 35.8406 3.24375 36.7781 4.17187L37.9125 5.30625L36.375 6.94687C33.0375 4.11563 28.7156 2.4 24 2.4C19.2844 2.4 14.9625 4.11563 11.625 6.94687L10.0875 5.30625L11.2219 4.17187C12.1594 3.24375 12.1594 1.71563 11.2219 0.778126C10.2844 -0.159374 8.76563 -0.159374 7.82813 0.778126L6 2.60625L4.0875 0.703126C3.62813 0.234374 3.00937 0 2.4 0ZM24 7.2C29.25 7.2 33.8438 10.0313 36.3563 14.2406C33.5531 13.1063 29.4469 12 24 12C18.5531 12 14.4469 13.1063 11.6438 14.2406C14.1563 10.0313 18.75 7.2 24 7.2ZM9.6 21.6H38.4C38.4 24.1875 37.6875 26.7375 36.3375 28.9875L36 29.55V33.6C36 34.9219 34.9219 36 33.6 36H28.8V40.8C28.8 42.1219 27.7219 43.2 26.4 43.2H21.6C20.2781 43.2 19.2 42.1219 19.2 40.8V36H14.4C13.0781 36 12 34.9219 12 33.6V29.55L11.6625 28.9875C10.3125 26.7375 9.6 24.1875 9.6 21.6ZM18 24C16.0125 24 14.4 25.6125 14.4 27.6C14.4 29.5875 16.0125 31.2 18 31.2C19.9875 31.2 21.6 29.5875 21.6 27.6C21.6 25.6125 19.9875 24 18 24ZM30 24C28.0125 24 26.4 25.6125 26.4 27.6C26.4 29.5875 28.0125 31.2 30 31.2C31.9875 31.2 33.6 29.5875 33.6 27.6C33.6 25.6125 31.9875 24 30 24ZM21.6 33.6V38.4H26.4V33.6H21.6Z" />
</g>
<defs>
<clipPath id="clip0_3_50">
<rect width="48" height="48" />
</clipPath>
</defs>
</svg>
