<svg width="48" height="48" viewBox="0 0 48 48"  xmlns="http://www.w3.org/2000/svg">
<g clip-path="url(#clip0_3_6)">
<path d="M24 0C14.1563 0 7.2 7.92187 7.2 19.2H4.8V7.2H0V19.2C0 21.8438 2.15625 24 4.8 24H7.425C8.625 34.8 13.4438 48 24 48C34.5563 48 39.375 34.8 40.575 24H43.2C45.8438 24 48 21.8438 48 19.2V7.2H43.2V19.2H40.8C40.8 7.92187 33.8438 0 24 0ZM12.225 16.8L21.6 19.2V22.35L13.65 25.425L12.45 24.225C12.2063 22.5469 11.9813 17.5219 12.225 16.8ZM35.775 16.8C36.0188 17.5219 35.7938 22.5281 35.55 24.45L34.35 25.65L26.4 22.35V19.2L35.775 16.8ZM24.225 26.625L34.575 30.75C32.6531 37.4719 29.2781 43.2 24 43.2C18.7219 43.2 15.3281 37.4719 13.65 30.75L24.225 26.625ZM19.2 33.6V36H28.8V33.6H19.2Z" />
</g>
<defs>
<clipPath id="clip0_3_6">
<rect width="48" height="48" />
</clipPath>
</defs>
</svg>
