<svg width="48" height="48" viewBox="0 0 48 48"  xmlns="http://www.w3.org/2000/svg">
<path d="M24 0.0040508C9.5816 -0.239677 2 10.5594 2 20.4023C2 27.6017 11.7778 36.2447 14.2222 40.8006C15.6927 43.4441 16.6667 48 24 48C31.3333 48 32.5556 43.2004 33.7778 40.8006C36.2222 36.001 46 27.6017 46 20.4023C46 10.5594 38.6667 0.247781 24 0.0040508ZM9.33333 19.9242C9.33333 18.2463 10.8038 16.8026 12.513 16.8026C17.6406 16.8026 21.8038 20.8804 21.8038 25.9237C21.8038 27.6017 20.3333 29.0454 18.6241 29.0454C13.487 28.8016 9.33333 24.7238 9.33333 19.9242ZM22.2908 35.5229C22.0425 36.001 21.3073 36.2447 20.5816 36.001C20.0851 35.7573 19.8464 35.0448 20.0851 34.323C20.3333 33.8449 22.2908 31.4451 23.026 31.6795C23.513 31.9232 22.5295 34.8011 22.2908 35.5229ZM27.4184 36.001C26.9314 36.2447 26.1962 36.001 25.7092 35.5229C25.4705 35.0448 24.487 31.9232 24.974 31.6795C25.4705 31.4451 27.4184 33.8449 27.9149 34.323C28.4019 34.8011 28.1536 35.5229 27.4184 36.001ZM29.6241 28.8016C27.9149 28.8016 26.4444 27.358 26.4444 25.68C26.4444 20.6461 30.5981 16.5589 35.7352 16.5589C37.4444 16.5589 38.9149 18.0025 38.9149 19.6805C38.6667 24.7238 34.513 28.8016 29.6241 28.8016Z" />
</svg>
