<svg width="48" height="48" viewBox="0 0 48 48"  xmlns="http://www.w3.org/2000/svg">
<path d="M46 28.6488C40.6756 28.6488 36.3158 30.5858 36.3158 35.9055C30.9914 35.9055 24.2105 30.5858 24.2105 23.811C24.2105 21.1465 25.4211 19.4551 26.6316 18.9732C25.1752 18.9732 23 15.5906 24.2105 9.29764C25.6669 14.863 28.5703 16.5543 31.4737 16.5543C38.9827 16.5543 46 10.0252 46 2.04094C46 2.04094 35.5876 -2.55118 21.7895 2.04094C19.3684 2.7685 15.2545 4.70551 12.3512 9.54331C6.29852 10.5071 0 15.3449 0 21.3921C2.90337 24.7748 8.2278 27.9213 11.6229 28.6488C14.7722 35.6598 22.0354 41.2252 36.3158 40.7433C36.3158 44.8535 40.6756 48 46 48C46 42.6803 45.0354 38.3244 43.5789 38.3244C45.0354 38.3244 46 35.4236 46 28.6488ZM33.8947 2.04094C35.3512 2.04094 36.3158 3.00472 36.3158 4.45984C36.3158 5.91496 35.3512 6.87874 33.8947 6.87874C32.4383 6.87874 31.4737 5.91496 31.4737 4.45984C31.4737 3.00472 32.4383 2.04094 33.8947 2.04094Z" />
</svg>
