<svg width="48" height="48" viewBox="0 0 48 48"  xmlns="http://www.w3.org/2000/svg">
<g clip-path="url(#clip0_3_36)">
<path d="M24.0387 0C16.1586 0 10.4421 4.8 8.29719 12C3.5225 20.6438 0.88337 26.6531 0.165302 30.975C-0.310303 34.8188 0.146652 40.0781 2.77646 43.2C4.2126 44.8781 6.15231 45.6 8.29719 45.6H8.52101C11.1508 45.6 13.5661 43.9313 15.2354 41.775C17.1472 43.4531 19.2641 44.8969 21.6514 45.375V48H26.4261V45.375C29.0559 44.8969 30.9303 43.6969 32.8421 41.775C34.5114 43.9313 36.9267 45.6 39.5565 45.6C41.7014 45.6 43.3427 44.8781 44.7788 43.2C48.1173 39.8438 48.1546 33.6188 47.9122 30.975C47.6697 26.8969 45.0213 20.6719 40.0041 12.75C38.0924 5.07187 32.152 0 24.0387 0ZM24.0387 4.8C31.2008 4.8 35.9755 10.3031 35.9755 18.225C35.9755 26.3813 32.8701 37.95 26.4261 40.35V36H21.6514V40.35C15.2074 37.95 12.102 26.3813 12.102 18.225C12.102 10.3031 16.8767 4.8 24.0387 4.8ZM14.4894 16.8C14.4894 16.8 15.683 21.6 21.6514 21.6V19.2C17.1192 19.2 14.4894 16.8 14.4894 16.8ZM33.5881 16.8C33.5881 16.8 30.9583 19.2 26.4261 19.2V21.6C32.3944 21.6 33.5881 16.8 33.5881 16.8ZM7.77496 23.25C8.25057 28.05 9.69603 33.3281 12.3258 37.65C11.1322 39.5719 9.47221 40.8 8.52101 40.8C7.80294 40.8 7.05689 40.5469 6.58129 39.825C5.14515 38.3813 4.46439 34.7813 4.93999 31.425C5.18246 29.5031 6.10568 26.85 7.77496 23.25ZM40.5263 23.25C42.1956 26.6063 43.1375 29.5031 43.1375 31.425C43.38 35.2688 42.6899 38.6063 41.4962 40.05C41.0206 40.5281 40.5077 40.8 39.5565 40.8C38.6053 40.8 36.9267 39.5719 35.9755 37.65C38.3628 33.3281 39.8083 28.05 40.5263 23.25ZM19.2641 24C17.8279 24 16.8767 24.9563 16.8767 26.4C16.8767 27.8438 17.8279 28.8 19.2641 28.8C20.7002 28.8 21.6514 27.8438 21.6514 26.4C21.6514 24.9563 20.7002 24 19.2641 24ZM28.8134 24C27.3773 24 26.4261 24.9563 26.4261 26.4C26.4261 27.8438 27.3773 28.8 28.8134 28.8C30.2496 28.8 31.2008 27.8438 31.2008 26.4C31.2008 24.9563 30.2496 24 28.8134 24ZM21.6514 31.2C16.4011 31.2 16.8767 36 16.8767 36C16.8767 36 17.5948 33.6 21.6514 33.6V31.2ZM26.4261 31.2V33.6C30.4827 33.6 31.2008 36 31.2008 36C31.2008 36 31.6764 31.2 26.4261 31.2Z" />
</g>
<defs>
<clipPath id="clip0_3_36">
<rect width="48" height="48" />
</clipPath>
</defs>
</svg>
