<svg width="48" height="48" viewBox="0 0 48 48"  xmlns="http://www.w3.org/2000/svg">
<g clip-path="url(#clip0_3_42)">
<path d="M3 0C1.344 0 0 1.344 0 3C0 4.656 1.344 6 3 6C3.352 6 3.686 5.92841 4 5.81641V14L5.92188 15.9219C7.94187 14.2219 10.6 12.62 14 11.5V8L5.52734 4.60547C5.82334 4.13947 6 3.592 6 3C6 1.344 4.656 0 3 0ZM45 0C43.344 0 42 1.344 42 3C42 3.592 42.1767 4.13947 42.4727 4.60547L34 8V11.5C37.4 12.62 40.0581 14.2219 42.0781 15.9219L44 14V5.81641C44.314 5.92841 44.648 6 45 6C46.656 6 48 4.656 48 3C48 1.344 46.656 0 45 0ZM24 14C23.64 14 23.2814 13.9995 22.9414 14.0195C22.5814 14.0195 22.2384 14.0381 21.8984 14.0781C18.7984 14.2581 16.18 14.9017 14 15.7617C11.9 16.6017 10.2003 17.6392 8.82031 18.6992C7.76031 19.5192 6.91828 20.3802 6.23828 21.1602C6.19828 21.1802 6.17969 21.2183 6.17969 21.2383C4.09969 23.9983 3 27.1609 3 30.4609C3 35.7609 5.84031 40.4997 10.3203 43.6797C13.6003 46.3397 18.46 48 24 48C29.54 48 34.3997 46.3397 37.6797 43.6797C42.1597 40.4997 45 35.7609 45 30.4609C45 27.2209 43.9609 24.0984 41.9609 21.3984C41.9609 21.3984 41.9614 21.3794 41.9414 21.3594C41.2414 20.5194 40.3197 19.5992 39.1797 18.6992C37.7997 17.6392 36.1 16.6017 34 15.7617C31.58 14.8017 28.6381 14.1395 25.0781 14.0195C24.7181 13.9995 24.36 14 24 14ZM24 17.5C26.24 17.5 28 19.04 28 21C28 22.96 26.24 24.5 24 24.5C21.76 24.5 20 22.96 20 21C20 19.04 21.76 17.5 24 17.5ZM15.5781 28.6602L23.9414 33.6016L32.8984 28.8984C36.1184 30.5384 38 32.9409 38 35.4609C38 40.0809 31.58 44 24 44C16.42 44 10 40.0809 10 35.4609C10 32.8409 12.1181 30.3002 15.5781 28.6602ZM16 32C14.5 32 13.3398 33.32 13.3398 35C13.3398 36.68 14.5 38 16 38C17.5 38 18.6602 36.68 18.6602 35C18.6602 33.32 17.5 32 16 32ZM32 32C30.5 32 29.3398 33.32 29.3398 35C29.3398 36.68 30.5 38 32 38C33.5 38 34.6602 36.68 34.6602 35C34.6602 33.32 33.5 32 32 32ZM24 36.6602C23.4749 36.6655 22.974 36.809 22.6056 37.0597C22.2371 37.3104 22.0305 37.6482 22.0305 38C22.0305 38.3518 22.2371 38.6896 22.6056 38.9403C22.974 39.191 23.4749 39.3345 24 39.3398C24.5251 39.3345 25.026 39.191 25.3944 38.9403C25.7629 38.6896 25.9695 38.3518 25.9695 38C25.9695 37.6482 25.7629 37.3104 25.3944 37.0597C25.026 36.809 24.5251 36.6655 24 36.6602V36.6602Z" />
</g>
<defs>
<clipPath id="clip0_3_42">
<rect width="48" height="48" />
</clipPath>
</defs>
</svg>
