<svg width="48" height="48" viewBox="0 0 48 48"  xmlns="http://www.w3.org/2000/svg">
<path d="M24 8C10.7969 8 0 15.2031 0 24C0 32.7969 10.7969 40 24 40C37.2031 40 48 32.7969 48 24C48 15.2031 37.2031 8 24 8ZM24 12C35 12 44 17.2031 44 24C44 30.7969 35 36 24 36C13 36 4 30.7969 4 24C4 17.2031 13 12 24 12ZM20 16C15 16 8 20.2031 8 24C8 27.7969 12.7969 31 16 32C14 28.7969 19.2031 26.6016 20 30C21.6016 28.6016 23.6016 29.7969 24 32C24.3984 29.7969 26.3984 28.6016 28 30C28.7969 26.6016 34 28.7969 32 32C35.2031 31 40 27.7969 40 24C40 20.2031 33 16 28 16C29.6016 16.3984 30 18 30 20C30 21 29.2031 22 28 22C27 22 26 21.6016 26 20V18L24 20L22 18V20C22 21.6016 21 22 20 22C18.7969 22 18 21 18 20C18 18 18.3984 16.3984 20 16Z" />
</svg>
