<svg width="48" height="48" viewBox="0 0 48 48"  xmlns="http://www.w3.org/2000/svg">
<g clip-path="url(#clip0_3_22)">
<path d="M6.01251 0C4.0264 0 2.41502 1.6125 2.41502 3.6C2.41502 3.69375 2.40565 3.80625 2.41502 3.9C0.944165 5.775 0.147845 8.2125 0.0166849 10.725C-0.0769988 12.5344 0.204055 14.4938 1.36575 16.125C2.28386 17.4188 3.73597 18.3938 5.48788 18.9C5.03819 20.5313 4.81335 22.2281 4.81335 24C4.81335 29.6156 7.93305 35.3531 11.6336 39C12.3362 40.3406 13.1513 41.5594 14.1069 42.675C16.7394 45.75 20.1964 48 24 48C27.8036 48 31.2606 45.75 33.8931 42.675C34.8768 41.5219 35.7293 40.2469 36.4413 38.85C40.0951 35.1938 43.1866 29.5594 43.1866 24C43.1866 22.2281 42.9618 20.5313 42.5121 18.9C44.264 18.3938 45.7161 17.4188 46.6342 16.125C47.7959 14.4938 48.077 12.5344 47.9833 10.725C47.8522 8.2125 47.0558 5.775 45.585 3.9C45.5943 3.80625 45.585 3.69375 45.585 3.6C45.585 1.6125 43.9736 0 41.9875 0C40.0014 0 38.39 1.6125 38.39 3.6C38.39 5.54063 39.917 7.125 41.8376 7.2C42.5027 8.25 43.1211 9.675 43.1866 10.95C43.2429 11.9625 43.0274 12.8344 42.662 13.35C42.306 13.8563 41.8376 14.2219 40.5635 14.4C37.247 8.67187 31.1107 4.8 24 4.8C16.8893 4.8 10.753 8.67187 7.43652 14.4C6.16241 14.2219 5.69399 13.8563 5.33798 13.35C4.97261 12.8344 4.75714 11.9625 4.81335 10.95C4.87893 9.675 5.49725 8.25 6.16241 7.2C8.08295 7.125 9.61001 5.54063 9.61001 3.6C9.61001 1.6125 7.99863 0 6.01251 0ZM24 9.6C32.085 9.6 38.39 15.9094 38.39 24C38.39 24.9188 38.1651 25.9406 37.8654 27C37.5749 25.8 37.1721 24.6563 36.6662 23.625C36.1228 22.5281 35.4858 21.5156 34.6426 20.7C33.7994 19.8844 32.6377 19.2 31.195 19.2H31.0451C28.2627 19.3875 26.4639 21.2625 25.3491 22.5C24.7963 23.1188 24.356 23.6156 24.0749 23.85C23.9063 23.9906 23.9813 23.925 24 23.925C23.7939 23.7375 23.391 23.2219 22.8758 22.575C21.8452 21.2813 19.9528 19.3688 16.9549 19.2H16.805C15.3623 19.2 14.2006 19.8844 13.3574 20.7C12.5142 21.5156 11.8772 22.5281 11.3338 23.625C10.8279 24.6563 10.4251 25.8 10.1346 27C9.83485 25.9406 9.61001 24.9188 9.61001 24C9.61001 15.9094 15.915 9.6 24 9.6ZM16.805 24.075C17.948 24.1875 18.3414 24.5906 19.1284 25.575C19.5406 26.1 19.9809 26.775 20.7023 27.45C21.4237 28.125 22.6509 28.8 24 28.8C25.3584 28.8 26.492 28.1531 27.2228 27.525C27.9535 26.8969 28.45 26.2781 28.9466 25.725C29.9021 24.6656 30.5017 24.1594 31.2699 24.075C31.2512 24.075 31.2137 24.0938 31.2699 24.15C31.551 24.4219 31.9632 24.9938 32.3192 25.725C33.0406 27.1875 33.5933 29.3438 33.5933 31.2C33.5933 34.0781 32.2068 37.2 30.2207 39.525C28.2346 41.85 25.7144 43.2 24 43.2C22.2856 43.2 19.7654 41.85 17.7793 39.525C15.7932 37.2 14.4067 34.0781 14.4067 31.2C14.4067 29.3438 14.9594 27.1875 15.6808 25.725C16.0368 24.9938 16.449 24.4219 16.7301 24.15C16.8987 23.9906 16.8144 24.075 16.805 24.075ZM19.2033 28.8C17.8824 28.8 16.805 29.8781 16.805 31.2C16.805 32.5219 17.8824 33.6 19.2033 33.6C20.5243 33.6 21.6017 32.5219 21.6017 31.2C21.6017 29.8781 20.5243 28.8 19.2033 28.8ZM28.7967 28.8C27.4757 28.8 26.3983 29.8781 26.3983 31.2C26.3983 32.5219 27.4757 33.6 28.7967 33.6C30.1176 33.6 31.195 32.5219 31.195 31.2C31.195 29.8781 30.1176 28.8 28.7967 28.8Z" />
</g>
<defs>
<clipPath id="clip0_3_22">
<rect width="48" height="48" />
</clipPath>
</defs>
</svg>
