<svg width="48" height="48" viewBox="0 0 48 48"  xmlns="http://www.w3.org/2000/svg">
<path d="M24 0C14.7092 0 8.34028 6.01875 7.11806 15.375L5.66667 14.625L2 12.975V24C2 28.8 4.4158 31.95 7.34722 33.15C9.79167 42.75 17.4019 47.7563 24 48C30.5981 47.7563 38.2083 42.75 40.6528 33.15C43.5842 31.95 46 28.8 46 24V12.975L42.5625 14.625L41.1111 15.375C39.6406 6.01875 33.2908 0 24 0ZM14.4514 9.6H33.7778C35.487 12.2438 36.4514 15.8438 36.4514 19.2V21.6H38.8958C39.3828 21.6 39.6311 21.5813 41.3403 20.625C41.092 21.825 41.1111 23.0438 41.1111 24C41.1111 27.3563 39.6788 28.5563 38.2083 28.8L36.4514 29.025L36.2222 30.75C34.513 38.6719 28.8889 42.9563 24 43.2C19.1111 42.9563 13.2483 38.6719 11.7778 30.75L11.5486 29.025L9.79167 28.8C8.32118 28.5563 6.88889 27.3563 6.88889 24V20.625C8.59809 21.5813 8.84635 21.6 9.33333 21.6H11.7778V19.2C11.7778 15.8438 12.4939 12.2438 14.4514 9.6ZM14.2222 14.4C14.2222 14.4 15.4444 19.2 21.5556 19.2V16.8C16.9149 16.8 14.2222 14.4 14.2222 14.4ZM33.7778 14.4C33.7778 14.4 31.0851 16.8 26.4444 16.8V19.2C32.5556 19.2 33.7778 14.4 33.7778 14.4ZM17.8889 21.6C15.8646 21.6 14.2222 23.2125 14.2222 25.2C14.2222 27.1875 15.8646 28.8 17.8889 28.8C19.9132 28.8 21.5556 27.1875 21.5556 25.2C21.5556 23.2125 19.9132 21.6 17.8889 21.6ZM30.1111 21.6C28.0868 21.6 26.4444 23.2125 26.4444 25.2C26.4444 27.1875 28.0868 28.8 30.1111 28.8C32.1354 28.8 33.7778 27.1875 33.7778 25.2C33.7778 23.2125 32.1354 21.6 30.1111 21.6Z" />
</svg>
