<svg width="48" height="48" viewBox="0 0 48 48"  xmlns="http://www.w3.org/2000/svg">
<path d="M24 0C18.6241 0 13.4583 1.94035 9.79167 5.8022C6.37327 9.41915 4.44444 14.2229 4.44444 19.2904V20.27C2 22.2009 2 25.3375 2 26.2983C2 29.4349 4.4158 32.044 7.34722 33.0047C9.79167 42.405 17.6406 48 24 48C30.3594 48 38.2083 42.405 40.6528 33.0047C43.5842 32.2794 46 29.6609 46 26.5243C46 25.3187 46 22.427 43.5556 20.4961V19.5165C43.5556 14.449 41.6267 9.64521 38.2083 6.02826C34.5417 1.93093 29.3759 0 24 0ZM16.6667 12.0565C25.2222 22.9074 32.8038 9.39089 38.6667 23.1334C38.6667 23.1334 41.5981 23.8681 41.1111 26.5243C40.6241 29.8964 36.6806 29.1617 36.6806 29.1617L36.2222 30.8948C34.513 39.0895 27.9149 43.4035 24 43.4035C20.0851 43.4035 13.487 39.0895 11.7778 30.8948L11.5486 29.1617C11.5486 29.1617 7.11806 29.416 7.11806 26.5243C7.11806 23.3878 9.5625 23.1334 9.5625 23.1334L11.7778 24.113C11.7778 19.0455 13.7352 13.2622 16.6667 12.0565ZM17.8889 21.7017C15.8646 21.7017 14.2222 23.3218 14.2222 25.3187C14.2222 27.3155 15.8646 28.9356 17.8889 28.9356C19.9132 28.9356 21.5556 27.3155 21.5556 25.3187C21.5556 23.3218 19.9132 21.7017 17.8889 21.7017ZM30.1111 21.7017C28.0868 21.7017 26.4444 23.3218 26.4444 25.3187C26.4444 27.3155 28.0868 28.9356 30.1111 28.9356C32.1354 28.9356 33.7778 27.3155 33.7778 25.3187C33.7778 23.3218 32.1354 21.7017 30.1111 21.7017Z" />
</svg>
