<svg width="48" height="48" viewBox="0 0 48 48"  xmlns="http://www.w3.org/2000/svg">
<path d="M21.5322 0C20.3535 0 19.1749 0.956251 19.1749 2.4V3.225C13.6039 5.14687 9.3221 10.3875 7.90403 16.875L7.38837 16.8C5.9703 16.8 5.03106 17.7563 5.03106 19.2V26.4C5.03106 27.8438 5.9703 28.8 7.38837 28.8H8.12503L5.03106 45.15C4.79165 46.5938 5.9703 48 7.38837 48H12.103C13.2816 48 14.2209 47.25 14.4603 46.05C14.4603 46.05 14.5339 45.6188 14.5339 45.6H33.4661C33.4661 45.6188 33.5397 46.05 33.5397 46.05C33.7791 47.25 34.7184 48 35.897 48H40.6116C42.0297 48 43.2083 46.5938 42.9689 45.15L39.654 28.8H40.3906C41.8087 28.8 42.7479 27.8438 42.7479 26.4V19.2C42.7479 17.7563 41.8087 16.8 40.3906 16.8L39.875 16.875C38.4569 10.3875 34.1751 5.14687 28.6041 3.225V2.4C28.6041 1.2 27.6649 0 26.2468 0H21.5322ZM19.1749 8.4V16.35C19.1749 17.7938 17.7937 18.9938 16.3756 18.75L12.4713 17.925C13.3921 13.5469 15.9428 10.1156 19.1749 8.4ZM28.6041 8.4C31.8362 10.1156 34.3869 13.5469 35.3077 17.925L31.4034 18.75C29.9853 18.9938 28.6041 18.0281 28.6041 16.35V8.4ZM12.103 21.6H35.676V24H28.6041V26.4H19.1749V24H12.103V21.6ZM18.9539 31.2H28.8251C30.0038 31.2 30.943 31.95 31.1824 33.15C31.606 35.5688 32.0388 37.8563 32.5821 40.8H15.4179C15.9612 37.8563 16.394 35.5688 16.8176 33.15C16.8176 31.95 17.7752 31.2 18.9539 31.2Z" />
</svg>
