<svg width="48" height="48" viewBox="0 0 48 48"  xmlns="http://www.w3.org/2000/svg">
<path d="M12.7074 6.00484C11.6212 6.04424 10.5216 6.32825 9.45597 6.9653C6.6436 8.64846 4.86549 11.2428 4.45313 14.2648C4.18254 16.2447 4.52195 18.2656 5.39915 20.1237C2.27252 23.3107 0 26.5235 0 28.9338C0 35.8855 18.4582 44 24 44C29.5418 44 48 35.8855 48 28.9338C48 26.5235 45.7275 23.3107 42.6009 20.1237C43.4763 18.2671 43.8129 16.2429 43.5426 14.2648C43.1303 11.2428 41.3521 8.65283 38.5398 6.96967C34.3978 4.49245 29.7548 7.34721 27.4219 9.18747C26.0545 8.59494 24.8649 8.23574 24 8.23574C23.1362 8.23574 21.9475 8.592 20.5824 9.18311C18.8506 7.81511 15.8491 5.89086 12.7074 6.00484ZM13.0227 10.4754C14.6722 10.4754 16.6145 11.6782 17.9105 12.7019C16.9723 14.4924 14.6822 17.7041 9.87784 19.1414C8.97893 17.8136 8.57997 16.3108 8.77415 14.8891C9.00324 13.2261 10.0009 11.8215 11.6591 10.829C12.0715 10.5809 12.534 10.4754 13.0227 10.4754ZM34.8281 10.4841C35.3714 10.4587 35.8871 10.5536 36.3409 10.8246C37.9991 11.8171 38.9989 13.2217 39.2259 14.8848C39.42 16.3064 39.0253 17.8093 38.1264 19.137C33.3242 17.7042 31.0385 14.5079 30.0938 12.7063C31.321 11.7457 33.1983 10.5602 34.8281 10.4841ZM13.0909 12.7063C12.5123 12.7063 11.9573 12.9418 11.5481 13.361C11.139 13.7802 10.9091 14.3487 10.9091 14.9415C10.9091 15.5344 11.139 16.1029 11.5481 16.5221C11.9573 16.9413 12.5123 17.1768 13.0909 17.1768C13.6696 17.1768 14.2245 16.9413 14.6337 16.5221C15.0429 16.1029 15.2727 15.5344 15.2727 14.9415C15.2727 14.3487 15.0429 13.7802 14.6337 13.361C14.2245 12.9418 13.6696 12.7063 13.0909 12.7063ZM34.9091 12.7063C34.3304 12.7063 33.7755 12.9418 33.3663 13.361C32.9571 13.7802 32.7273 14.3487 32.7273 14.9415C32.7273 15.5344 32.9571 16.1029 33.3663 16.5221C33.7755 16.9413 34.3304 17.1768 34.9091 17.1768C35.4877 17.1768 36.0427 16.9413 36.4519 16.5221C36.861 16.1029 37.0909 15.5344 37.0909 14.9415C37.0909 14.3487 36.861 13.7802 36.4519 13.361C36.0427 12.9418 35.4877 12.7063 34.9091 12.7063ZM10.125 24.3978C10.1905 24.4648 17.4982 30.5884 24 30.5884C30.5236 30.5884 37.8095 24.4648 37.875 24.3978L40.6705 27.838C40.3214 28.1286 32.0945 35.0589 24 35.0589C15.9055 35.0589 7.67864 28.1286 7.32955 27.838L10.125 24.3978Z" />
</svg>
