<svg width="48" height="48" viewBox="0 0 48 48"  xmlns="http://www.w3.org/2000/svg">
<g clip-path="url(#clip0_4_63)">
<path d="M28.6386 0C26.3118 0 24.1066 0.525 22.1349 1.425C19.0606 1.77187 14.3698 1.90313 9.94991 3.75C5.53004 5.59687 1.35313 9.525 0.157057 16.35V16.425C-0.272781 19.2938 0.157057 22.2469 1.7269 24.675C3.21265 26.9625 5.87578 28.6125 9.12761 28.8C9.83778 30.8813 10.7909 32.7375 12.1178 33.6C12.6785 33.9469 13.398 34.1719 14.1362 34.35C14.9117 36.5719 15.8275 38.5781 16.9021 40.275C19.9857 45.1688 24.2374 48 28.6386 48C34.9086 48 40.4965 42.3 42.7672 32.775C43.7577 32.3625 44.7669 32.0438 45.6079 31.275C46.8693 30.1313 48 28.4813 48 26.4C48 25.3406 48 24.0563 47.4767 22.725C47.1777 21.975 46.2713 21.4875 45.6079 20.85V19.275C45.6079 19.2469 45.6079 19.2281 45.6079 19.2C45.7293 14.4375 44.4678 9.7125 41.6459 6.075C38.8052 2.41875 34.3106 0 28.6386 0ZM28.6386 4.8C33.021 4.8 35.8991 6.4125 37.9081 9C39.9172 11.5875 40.9263 15.2719 40.8236 19.125V23.175L42.2439 23.775C42.8139 24.0281 42.8513 24.1688 42.9914 24.525C43.1316 24.8813 43.2157 25.5375 43.2157 26.4C43.2157 26.7188 42.9821 27.2156 42.3934 27.75C41.8047 28.2844 40.917 28.7344 40.3003 28.875L38.8052 29.175L38.5062 30.75C36.7307 39.675 32.1427 43.2 28.6386 43.2C26.3399 43.2 23.4151 41.5781 20.9388 37.65C20.3688 36.75 19.8642 35.7 19.369 34.575C21.3406 34.3875 23.1721 34.0125 24.3028 33.6C26.6949 32.8781 28.8628 30.7313 28.8628 26.175C28.8628 20.8969 27.1622 18.2438 22.1349 16.8C20.3688 16.3313 18.5747 15.9188 16.9021 15.525C17.4534 13.1156 18.5093 10.8469 19.967 9.075C22.1536 6.42187 25.0877 4.8 28.6386 4.8ZM15.3322 7.2C13.8371 9.3375 12.7812 11.775 12.1925 14.4H12.1178C9.72565 14.4 7.3335 16.5563 7.3335 19.2C7.3335 19.2 7.51104 21.1781 7.93154 23.7C6.913 23.4 6.19349 22.9031 5.6889 22.125C4.94135 20.9719 4.67037 19.1531 4.94135 17.25C4.94135 17.2219 4.94135 17.2031 4.94135 17.175C5.90382 11.8219 8.4081 9.6375 11.744 8.25C12.8653 7.78125 14.0801 7.4625 15.3322 7.2ZM22.8825 21.6C24.798 21.6 26.4707 23.2781 26.4707 25.2C26.4707 27.1219 24.798 28.8 22.8825 28.8C20.9669 28.8 19.2942 27.1219 19.2942 25.2C19.2942 23.2781 20.9669 21.6 22.8825 21.6ZM34.8432 21.6C32.8622 21.6 31.255 23.2125 31.255 25.2C31.255 27.1875 32.8622 28.8 34.8432 28.8C36.8242 28.8 38.4314 27.1875 38.4314 25.2C38.4314 23.2125 36.8242 21.6 34.8432 21.6Z" />
</g>
<defs>
<clipPath id="clip0_4_63">
<rect width="48" height="48" />
</clipPath>
</defs>
</svg>
