<svg width="48" height="48" viewBox="0 0 48 48"  xmlns="http://www.w3.org/2000/svg">
<path d="M22 0V4.55469C21.2066 5.01591 20.5874 5.7313 20.2617 6.60156C15.4694 8.17594 12 12.6857 12 18V19.1211C9.62494 20.5137 8 23.0667 8 26C8 28.9333 9.62494 31.4863 12 32.8789V44H16V42C16 39.8 17.8 38 20 38H28C30.2 38 32 39.8 32 42V44H36V32.8789C38.3751 31.4863 40 28.9333 40 26C40 23.0667 38.3751 20.5137 36 19.1211V18C36 12.6857 32.5306 8.17594 27.7383 6.60156C27.4126 5.7313 26.7934 5.01591 26 4.55469V0H22ZM16 22H32C34.2333 22 36 23.7667 36 26C36 28.2333 34.2333 30 32 30H16C13.7667 30 12 28.2333 12 26C12 23.7667 13.7667 22 16 22ZM16 24V28H20V24H16ZM28 24V28H32V24H28Z" />
</svg>
