<svg width="48" height="48" viewBox="0 0 48 48"  xmlns="http://www.w3.org/2000/svg">
<g clip-path="url(#clip0_3_40)">
<path d="M17.3784 0C10.4558 0 4.60031 4.608 2.71271 10.9091H45.2873C43.3997 4.608 37.542 0 30.6216 0H24.0598H23.9402H17.3784ZM2.06764 15.2727V25.304C0.753099 26.5214 0 28.3042 0 30.294C0 32.1595 0.7707 33.9519 2.06337 35.1563L4.31043 37.3977V37.4105L20.0441 29.3097C22.4632 28.0704 25.4173 28.0769 27.8277 29.3097L43.6255 37.4574L45.8768 35.2074C47.2242 33.9528 48 32.1595 48 30.294C48 28.3042 47.2469 26.5214 45.9324 25.304V15.2727H2.06764ZM8.62941 19.6364H21.7529L13.6832 25.6875C12.4889 26.5842 10.7679 26.0467 10.2955 24.6307L8.62941 19.6364ZM26.1274 19.6364H39.251L37.5849 24.6307C37.1125 26.0445 35.3915 26.582 34.1972 25.6875L26.1274 19.6364ZM23.9402 32.7358C23.2889 32.7358 22.6383 32.8885 22.0477 33.1918L5.68174 41.6122L6.13457 42.3537C8.81395 47.0402 11.9187 48 15.7508 48H17.3784C20.2306 48 22.6609 46.176 23.5643 43.6364H24.3161C25.2195 46.176 27.654 48 30.5062 48H32.1296C35.9595 48 39.0608 47.0411 41.7074 42.4091L42.1858 41.625L25.8241 33.1875C25.2401 32.8864 24.5914 32.7358 23.9402 32.7358Z" />
</g>
<defs>
<clipPath id="clip0_3_40">
<rect width="48" height="48" />
</clipPath>
</defs>
</svg>
