<svg width="48" height="48" viewBox="0 0 48 48"  xmlns="http://www.w3.org/2000/svg">
<path d="M24 0C15.1962 0 2 4.8 2 24V43.2H13.2292C16.4089 46.3219 20.3333 47.7563 24 48C27.6667 48 31.5911 46.3219 34.7708 43.2H46V24C45.7517 5.27813 32.8038 0 24 0ZM15.9028 7.65C17.612 8.60625 20.8203 9.6 24 9.6C27.1797 9.6 30.3689 8.67187 32.3264 7.95L32.5556 8.175C35 10.8188 36.4514 14.8781 36.4514 19.2C36.4514 19.6781 36.2222 22.8 36.2222 22.8H38.6667C39.6406 22.8 41.1111 24.4781 41.1111 26.4C41.1111 27.3563 39.6788 28.5563 38.2083 28.8L36.4514 29.025L36.2222 30.75C34.7517 38.6719 28.8889 42.9563 24 43.2C19.1111 42.9563 13.487 38.6719 11.7778 30.75L11.5486 29.025L9.79167 28.8C8.32118 28.5563 6.88889 27.3563 6.88889 26.4C6.88889 24.7219 7.8533 23.0438 9.5625 22.8L12.0069 22.575C12.0069 22.575 11.7778 19.4438 11.7778 19.2C11.7778 14.6438 12.9809 10.5938 15.6736 7.95L15.9028 7.65ZM29.5 21.675C28.0868 21.8438 26.6736 22.8 26.6736 22.8C26.6736 22.8 27.638 25.4531 29.3472 26.175C31.0564 26.8969 33.5486 25.2 33.5486 25.2C33.5486 25.2 32.5842 22.5469 30.875 21.825C30.4453 21.6469 29.9679 21.6188 29.5 21.675ZM17.8889 21.75C17.6406 21.7594 17.3733 21.7688 17.125 21.825C15.1675 22.3031 14.4514 25.2 14.4514 25.2C14.4514 25.2 16.6953 26.6531 18.6528 26.175C20.6102 25.6969 21.3264 22.8 21.3264 22.8C21.3264 22.8 19.6172 21.7031 17.8889 21.75ZM19.875 26.4C19.875 28.3219 18.1372 31.2 16.6667 31.2V33.6C18.8628 33.6 21.5556 29.7563 21.5556 26.4H19.875ZM26.4444 26.4C26.4444 29.7563 29.1372 33.6 31.3333 33.6V31.2C30.1111 31.2 28.125 28.3219 28.125 26.4H26.4444ZM19.1111 36V38.4H28.8889V36H19.1111Z" />
</svg>
