<svg width="48" height="48" viewBox="0 0 48 48"  xmlns="http://www.w3.org/2000/svg">
<path d="M24 0C13.3181 0 7 7.44375 7 19.2C7 30.9563 12.8248 48 24 48C35.1752 48 41 30.9563 41 19.2C41 7.44375 34.6819 0 24 0ZM25.6981 22.3219C28.3733 25.6781 36.8733 14.4 31.2857 7.2C37.6038 8.4 40.7533 26.8781 31.2857 31.2C31.2857 31.2 24.7305 26.6438 25.6981 22.3219ZM16.7143 7.2C11.1267 14.4 19.6267 25.6781 22.3019 22.3219C23.2695 26.6438 16.7143 31.2 16.7143 31.2C7.24665 26.8781 10.3962 8.4 16.7143 7.2ZM24 43.2C18.4124 43.2 11.8571 31.2 11.8571 31.2C11.8571 31.2 14.7695 32.8781 24 33.6C33.4676 32.8781 36.1429 31.2 36.1429 31.2C36.1429 31.2 29.1038 43.2 24 43.2Z" />
</svg>
