<svg width="48" height="48" viewBox="0 0 48 48"  xmlns="http://www.w3.org/2000/svg">
<path d="M17.2503 0C16.6537 0.000116736 16.0815 0.240989 15.6596 0.669643L8.90994 7.52679C8.488 7.95538 8.2509 8.53669 8.25079 9.14286V17.7455L6.2382 21.8348C6.10585 22.1033 6.02686 22.3957 6.00575 22.6952C5.98464 22.9947 6.02181 23.2955 6.11515 23.5804L8.3211 30.3036L10.5446 41.5893C10.6023 41.8839 10.7166 42.1641 10.881 42.4138C11.0454 42.6636 11.2566 42.8779 11.5026 43.0446L18.2522 47.6161C18.6218 47.8664 19.056 48 19.5002 48H24H28.4998C28.944 48 29.3782 47.8664 29.7478 47.6161L36.4974 43.0446C36.7434 42.8779 36.9546 42.6636 37.119 42.4138C37.2834 42.1641 37.3977 41.8839 37.4554 41.5893L39.6789 30.3036L41.8848 23.5804C41.9782 23.2955 42.0154 22.9947 41.9943 22.6952C41.9731 22.3957 41.8942 22.1033 41.7618 21.8348L39.7492 17.7455V9.14286C39.7491 8.53669 39.512 7.95538 39.0901 7.52679L32.3404 0.669643C31.9185 0.240989 31.3463 0.000116857 30.7497 0H17.2503ZM16.4286 6.35268L19.6628 14.5625C19.8296 14.9865 20.1176 15.35 20.4896 15.6062C20.8616 15.8624 21.3007 15.9996 21.7501 16H26.2499C26.6993 15.9996 27.1384 15.8624 27.5104 15.6062C27.8824 15.35 28.1704 14.9865 28.3372 14.5625L31.5714 6.35268L35.2494 10.0893V18.2857C35.2494 18.6406 35.3306 18.9906 35.4867 19.308L37.3192 23.0313L35.3637 28.9911C35.3346 29.0818 35.3111 29.1742 35.2934 29.2679L33.2281 39.7679L30.5827 41.558L27.5902 39.308C27.2026 39.0156 26.7327 38.8575 26.2499 38.8571H21.7501C21.2673 38.8575 20.7974 39.0156 20.4098 39.308L17.4173 41.558L14.7719 39.7679L12.7066 29.2679C12.6889 29.1742 12.6654 29.0818 12.6363 28.9911L10.6808 23.0313L12.5133 19.308C12.6694 18.9906 12.7506 18.6406 12.7506 18.2857V10.0893L16.4286 6.35268ZM13.2955 20.6384L12.2057 25.0759L21.2052 27.3616L22.295 22.9241L13.2955 20.6384ZM34.7045 20.6384L25.705 22.9241L26.7948 27.3616L35.7943 25.0759L34.7045 20.6384Z" />
</svg>
