<svg width="48" height="48" viewBox="0 0 48 48"  xmlns="http://www.w3.org/2000/svg">
<path d="M23.5165 0C16.5851 0 9.65379 4.57143 9.65379 13.7143V14.5179C6.93373 15.809 5.03291 18.5404 5.03291 21.7143C5.03291 23.952 5.97669 25.974 7.48324 27.4286H7.34335C7.03719 27.4243 6.73322 27.4802 6.44911 27.5932C6.165 27.7061 5.90641 27.8738 5.68837 28.0865C5.47034 28.2992 5.2972 28.5526 5.17903 28.832C5.06085 29.1115 5 29.4114 5 29.7143C5 30.0172 5.06085 30.3171 5.17903 30.5965C5.2972 30.876 5.47034 31.1294 5.68837 31.3421C5.90641 31.5548 6.165 31.7224 6.44911 31.8354C6.73322 31.9483 7.03719 32.0043 7.34335 32H9.79368C8.28714 33.4546 7.34335 35.4765 7.34335 37.7143V41.1429H9.88845C10.4737 44.9861 13.6972 48 17.7403 48H21.206H37.3791V34.2857C38.6499 34.2857 39.8054 33.7832 40.6372 32.9375C41.4921 32.1146 42 30.9714 42 29.7143C42 28.4571 41.4921 27.3139 40.6372 26.4911C39.8054 25.6454 38.6499 25.1429 37.3791 25.1429V13.7143C37.3791 4.57143 30.4478 0 23.5165 0ZM13.1195 16C13.5604 16 13.9881 16.0582 14.401 16.1518C14.4965 16.1731 14.5872 16.2062 14.6808 16.2321C14.9956 16.3206 15.2975 16.4338 15.5878 16.5714C15.6819 16.6157 15.7764 16.6562 15.8676 16.7054C15.8904 16.7177 15.9082 16.7374 15.9308 16.75C14.8377 18.1946 14.2747 19.9509 14.2747 21.7143C14.2747 23.4809 14.8381 25.2415 15.9353 26.6875C15.1016 27.1509 14.15 27.4286 13.1195 27.4286C9.91526 27.4286 7.34335 24.8842 7.34335 21.7143C7.34335 21.5047 7.38459 21.3063 7.40653 21.1027C7.52725 21.6025 7.81467 22.0474 8.2224 22.3657C8.63013 22.684 9.13439 22.8572 9.65379 22.8571C10.2666 22.8571 10.8542 22.6163 11.2875 22.1877C11.7208 21.759 11.9642 21.1776 11.9642 20.5714C11.9642 19.9652 11.7208 19.3838 11.2875 18.9552C10.8542 18.5265 10.2666 18.2857 9.65379 18.2857C9.10273 18.2856 8.56978 18.4804 8.1511 18.8348C8.55945 18.1436 9.09853 17.5453 9.75307 17.0804C9.87944 16.99 10.015 16.9108 10.1502 16.8304C10.3071 16.7372 10.4668 16.6498 10.633 16.5714C10.7746 16.5046 10.9181 16.4397 11.0662 16.3839C11.2576 16.3123 11.4567 16.2569 11.6574 16.2054C11.7936 16.1699 11.9283 16.1284 12.068 16.1027C12.4095 16.0411 12.7592 16 13.1195 16ZM22.3612 16C25.5496 16 28.1373 18.56 28.1373 21.7143C28.1373 24.8686 25.5496 27.4286 22.3612 27.4286C20.4667 27.4286 18.8031 26.5371 17.7403 25.1429C17.7242 25.1641 17.7026 25.1799 17.6862 25.2009C16.9776 24.2071 16.5851 22.9754 16.5851 21.7143C16.5851 20.4588 16.9747 19.2327 17.6772 18.2411C17.696 18.2654 17.722 18.2834 17.7403 18.308C18.78 16.9137 20.4667 16 22.3612 16ZM21.206 18.2857C20.5932 18.2857 20.0056 18.5265 19.5723 18.9552C19.139 19.3838 18.8956 19.9652 18.8956 20.5714C18.8956 21.1776 19.139 21.759 19.5723 22.1877C20.0056 22.6163 20.5932 22.8571 21.206 22.8571C21.8188 22.8571 22.4064 22.6163 22.8397 22.1877C23.273 21.759 23.5165 21.1776 23.5165 20.5714C23.5165 19.9652 23.273 19.3838 22.8397 18.9552C22.4064 18.5265 21.8188 18.2857 21.206 18.2857ZM15.4299 32H16.5851H21.206C24.4102 32 26.9821 34.5444 26.9821 37.7143V40C26.9821 43.1699 24.4102 45.7143 21.206 45.7143H17.7403C14.989 45.7143 13.0336 43.68 12.4426 41.1429H21.206V38.8571H9.65379V37.7143C9.65379 34.5444 12.2257 32 15.4299 32Z" />
</svg>
