<svg width="48" height="48" viewBox="0 0 48 48"  xmlns="http://www.w3.org/2000/svg">
<path d="M24 0C18.8418 0 14.0454 1.75313 10.5664 5.1C7.56982 7.97813 5.55664 12 5.07422 16.8H5V24H5.29688C5.82568 28.4719 7.0874 33.2344 9.23047 37.425C12.1621 43.1625 17.1162 48 24 48C30.8838 48 35.8379 43.1625 38.7695 37.425C40.9126 33.2344 42.1743 28.4719 42.7031 24H43V16.8H42.9258C42.4434 12 40.4302 7.97813 37.4336 5.1C33.9546 1.75313 29.1582 0 24 0ZM19.25 5.475V12H28.75V5.475C30.856 6.09375 32.6836 7.125 34.168 8.55C36.2368 10.5375 37.6562 13.275 38.1016 16.8H35.875V24H37.8789C37.3501 27.825 36.2554 31.8938 34.5391 35.25C32.0713 40.0688 28.75 43.2 24 43.2C19.25 43.2 15.9287 40.0688 13.4609 35.25C11.7446 31.8938 10.6499 27.825 10.1211 24H12.125V16.8H9.89844C10.3438 13.275 11.7632 10.5375 13.832 8.55C15.3164 7.125 17.144 6.09375 19.25 5.475ZM18.0625 19.2C16.0957 19.2 14.5 20.8125 14.5 22.8C14.5 24.7875 16.0957 26.4 18.0625 26.4C20.0293 26.4 21.625 24.7875 21.625 22.8C21.625 20.8125 20.0293 19.2 18.0625 19.2ZM29.9375 19.2C27.9707 19.2 26.375 20.8125 26.375 22.8C26.375 24.7875 27.9707 26.4 29.9375 26.4C31.9043 26.4 33.5 24.7875 33.5 22.8C33.5 20.8125 31.9043 19.2 29.9375 19.2ZM24 28.8C22.5713 28.8 21.625 29.7563 21.625 31.2H26.375C26.375 29.7563 25.4287 28.8 24 28.8ZM20.4375 33.6C19.7788 33.6 19.25 34.1344 19.25 34.8C19.25 35.4656 19.7788 36 20.4375 36C21.0962 36 21.625 35.4656 21.625 34.8C21.625 34.1344 21.0962 33.6 20.4375 33.6ZM27.5625 33.6C26.9038 33.6 26.375 34.1344 26.375 34.8C26.375 35.4656 26.9038 36 27.5625 36C28.2212 36 28.75 35.4656 28.75 34.8C28.75 34.1344 28.2212 33.6 27.5625 33.6ZM20.4375 38.4C19.7788 38.4 19.25 38.9344 19.25 39.6C19.25 40.2656 19.7788 40.8 20.4375 40.8C21.0962 40.8 21.625 40.2656 21.625 39.6C21.625 38.9344 21.0962 38.4 20.4375 38.4ZM27.5625 38.4C26.9038 38.4 26.375 38.9344 26.375 39.6C26.375 40.2656 26.9038 40.8 27.5625 40.8C28.2212 40.8 28.75 40.2656 28.75 39.6C28.75 38.9344 28.2212 38.4 27.5625 38.4Z" />
</svg>
