<svg width="48" height="48" viewBox="0 0 48 48"  xmlns="http://www.w3.org/2000/svg">
<g clip-path="url(#clip0_3_48)">
<path d="M24 0C10.7719 0 0 10.7719 0 24C0 37.2281 10.7719 48 24 48H48L39.6 42.225C44.7281 37.8188 48 31.2656 48 24C48 10.7719 37.2281 0 24 0ZM24 4.8C34.6313 4.8 43.2 13.3688 43.2 24C43.2 34.6313 34.6313 43.2 24 43.2C13.3688 43.2 4.8 34.6313 4.8 24C4.8 13.3688 13.3688 4.8 24 4.8ZM15.6 14.4C13.6125 14.4 12 16.0125 12 18C12 19.9875 13.6125 21.6 15.6 21.6C17.5875 21.6 19.2 19.9875 19.2 18C19.2 16.0125 17.5875 14.4 15.6 14.4ZM32.4 14.4C30.4125 14.4 28.8 16.0125 28.8 18C28.8 19.9875 30.4125 21.6 32.4 21.6C34.3875 21.6 36 19.9875 36 18C36 16.0125 34.3875 14.4 32.4 14.4ZM12.3 26.4C13.3313 31.8656 18.0844 36 23.85 36C29.6156 36 34.4438 31.8656 35.475 26.4H12.3Z" />
</g>
<defs>
<clipPath id="clip0_3_48">
<rect width="48" height="48" />
</clipPath>
</defs>
</svg>
