<svg width="48" height="48" viewBox="0 0 48 48"  xmlns="http://www.w3.org/2000/svg">
<g clip-path="url(#clip0_3_2)">
<path d="M22 -0.1875L20.625 2L18.625 1.375C18.625 1.375 16.0234 4.39063 15.625 5.1875C15.2266 5.1875 13.375 5 13.375 5C13.375 5 12.3906 7.58594 12.1875 8.1875H11C11 8.1875 8.20312 11.9844 8.99999 15.1875L8.18749 14.8125C8.18749 14.8125 7.60937 20.2109 11.8125 25.8125L10.375 29L12.8125 31.375H13.375C13.375 31.5781 14.4219 35.6016 14.625 36C14.8281 36.3984 18.1875 40 18.1875 40H30.1875C30.1875 40 32.3906 34.4219 33.1875 31.625L34 32L36.8125 28.1875L35.375 26.625L37.375 23.375C37.1719 23.375 38.375 16.3984 38.375 14C38.375 10.3984 35.625 7.1875 35.625 7.1875L35 7.375C34.3984 6.57813 31 3 31 3L30.375 4.1875C28.9766 2.58594 26.625 0.8125 26.625 0.8125L24.625 1.8125L22 -0.1875ZM22.625 4.375L24 5.625L26 4.625C29 6.02344 30.625 10 30.625 10L31.375 8.375C32.7734 9.57813 33.1875 11.625 33.1875 11.625L34.375 11C34.7734 11.6016 35.1875 12.6016 35.1875 14L34.625 20.1875L33.8125 19.375L33.375 17.375L32.625 18.625L30.8125 16L29.8125 17.8125C29.8125 17.8125 27.5859 14.6016 27.1875 14L26.625 15.375L23.375 13L19.375 16.375L18 15.375L14.8125 19.625L14 18.375C13.3984 19.375 13 20.625 13 20.625C13 20.625 10.9844 16.7969 12.1875 13C12.3906 12 12.7969 11.3984 13 11H14.375C14.375 11 14.9766 8.98438 15.375 8.1875C15.5781 8.1875 17.1875 8.375 17.1875 8.375C17.1875 8.375 18.625 6.20313 19.625 5L21.8125 6L22.625 4.375ZM21.1875 21.8125C21.1875 21.8125 22.1719 24.625 20.375 25.625C20.375 25.625 19.5781 26.5781 19.375 27.375C19.375 27.375 20 27.6016 20 28C20 28.2031 19.7734 28.375 19.375 28.375C18.5781 28.375 19.1875 26.5859 19.1875 26.1875C18.3906 26.7891 17.7891 26.7734 16.1875 27.375L16.375 25.625L14.1875 23C14.1875 23 16.1875 23.7969 16.1875 24C16.1875 24 18.8125 23.4219 19.8125 23.625C20.6094 23.8281 21.1875 21.8125 21.1875 21.8125ZM32.8125 22.1875C33.0156 22.5859 32.3984 23.7891 32 24.1875C30.2031 24.7891 30 27 30 27C30 27 26.8125 26.2266 25.8125 25.625C25.2109 25.2266 24.625 23.9766 24.625 23.375C24.625 23.375 25.7734 24.2031 26.375 24C26.7734 23.7969 30.1875 22.8125 30.1875 22.8125C30.1875 22.8125 30.9844 23.375 31.1875 23.375C31.5859 22.9766 32.8125 22.3906 32.8125 22.1875ZM29.1875 30.625L30.1875 31.8125L29.625 33.1875L28.375 35.1875L26.8125 35.375L26.1875 37.1875H26V35.625H24.625L24.1875 37.1875H24L23.375 35.625L21.8125 35.375L21.625 36.8125H21V35.1875L20 35L19.8125 36.625H19.375L19 34.625L18 34.1875L16.8125 33.6875L16.625 33.625L16 31L16.8125 30.8125V31.625L17.375 32L18.1875 30.8125L18 32.375L19.625 33L20 31.625H20.1875V33.625L22 33.8125L22.375 31.375H22.8125V32.625H25V31.375H25.625L26 33.375H27.625L27.8125 31.625L28.375 33L29 32.8125L29.1875 30.625ZM29.1875 41.625L25.1875 43.625C25.1875 43.625 24.7891 43 24.1875 43C23.7891 43 23.1875 43.6094 23.1875 43.8125C22.7891 43.8125 19.7891 41.6094 18.1875 41.8125C17.9844 43.4141 18.2031 45.3906 19 46.1875C19.6016 46.1875 23.1875 44.375 23.1875 44.375C23.1875 44.375 23.5781 45 24.375 45C25.1719 45 25.1719 44.5859 25.375 44.1875C28.375 45.7891 29.8125 46 29.8125 46C29.8125 46 30.9844 43.2266 29.1875 41.625Z" />
</g>
<defs>
<clipPath id="clip0_3_2">
<rect width="48" height="48" />
</clipPath>
</defs>
</svg>
