<svg width="48" height="48" viewBox="0 0 48 48"  xmlns="http://www.w3.org/2000/svg">
<g clip-path="url(#clip0_3_30)">
<path d="M24 0L22.8 0.668731C22.3219 0.910218 13.9219 5.88855 9.6 12.7802V7.57895C9.6 3.5387 6.47813 0.44582 2.4 0.44582V5.20124C3.84375 5.20124 4.8 6.14861 4.8 7.57895V8.02477C4.07813 7.78328 3.12187 7.57895 2.4 7.57895V12.3344C3.6 12.3344 4.78125 13.7926 5.025 14.2663C5.26875 15.9288 5.79375 17.3313 6.75 18.2786C6.99375 18.5201 7.18125 18.7245 7.425 18.7245C7.18125 19.4396 7.2 21.6037 7.2 21.8452C7.2 34.9226 5.27813 42.0557 0 48H48C42.7219 42.0557 40.8 34.9226 40.8 21.8452C40.8 21.6037 40.8188 19.4396 40.575 18.7245C40.8188 18.483 41.0063 18.5201 41.25 18.2786C42.2063 17.3313 42.7313 15.9288 42.975 14.2663C43.2188 13.7926 44.4 12.3344 45.6 12.3344V7.57895C44.8781 7.57895 43.9219 7.78328 43.2 8.02477V7.57895C43.2 6.14861 44.1563 5.20124 45.6 5.20124V0.44582C41.5219 0.44582 38.4 3.5387 38.4 7.57895V12.7802C34.0781 5.64706 25.6781 0.910218 25.2 0.668731L24 0ZM24 5.64706C27.8438 8.02477 34.8188 13.7647 35.775 19.4675H12.225C13.1813 13.7647 20.1563 8.02477 24 5.64706ZM12.225 24.2229H36C35.0438 33.9752 30.9563 43.2446 24 43.2446C17.2781 43.2446 12.9469 33.9752 12.225 24.2229ZM15.15 26.6006C15.15 26.6006 15.3563 29.452 16.8 30.1672C20.1563 31.5975 21.6 28.2353 21.6 28.2353L15.15 26.6006ZM32.625 26.6006L26.4 28.2353C26.4 28.2353 28.0781 32.0712 31.2 30.1672C32.6438 29.2198 32.625 26.6006 32.625 26.6006Z" />
</g>
<defs>
<clipPath id="clip0_3_30">
<rect width="48" height="48" />
</clipPath>
</defs>
</svg>
