<svg width="48" height="48" viewBox="0 0 48 48"  xmlns="http://www.w3.org/2000/svg">
<g clip-path="url(#clip0_4_67)">
<path d="M16.8 0V7.2H14.4V11.6391C14.2472 11.7315 14.0794 11.8153 13.9313 11.9109C12.9129 9.16962 10.2911 7.2 7.2 7.2C3.2304 7.2 0 10.4304 0 14.4C0 18.3696 3.2304 21.6 7.2 21.6C7.27393 21.6 7.34222 21.5788 7.41563 21.5766C7.31803 22.1899 7.231 22.8063 7.20938 23.4516C5.69738 24.8028 4.8 26.748 4.8 28.8C4.8 33.216 7.7016 35.6572 9.6 36.7828V39.6C9.6 44.388 15.7896 48 24 48C32.2104 48 38.4 44.388 38.4 39.6V36.7781C40.2984 35.6549 43.2 33.216 43.2 28.8C43.2 26.748 42.3026 24.8052 40.7906 23.4516C40.769 22.8076 40.6816 22.1887 40.5844 21.5766C40.6578 21.5788 40.7261 21.6 40.8 21.6C44.7696 21.6 48 18.3696 48 14.4C48 10.4304 44.7696 7.2 40.8 7.2C37.7089 7.2 35.0871 9.16962 34.0688 11.9109C33.9206 11.8153 33.7528 11.7315 33.6 11.6391V7.2H31.2V0H16.8ZM7.2 12C8.5248 12 9.6 13.0752 9.6 14.4C9.6 15.7248 8.5248 16.8 7.2 16.8C5.8752 16.8 4.8 15.7248 4.8 14.4C4.8 13.0752 5.8752 12 7.2 12ZM40.8 12C42.1248 12 43.2 13.0752 43.2 14.4C43.2 15.7248 42.1248 16.8 40.8 16.8C39.4752 16.8 38.4 15.7248 38.4 14.4C38.4 13.0752 39.4752 12 40.8 12ZM14.4 16.8C19.2 16.8 21.6 19.2 21.6 19.2H14.4V16.8ZM33.6 16.8V19.2H26.4C26.4 19.2 28.8 16.8 33.6 16.8ZM18.7406 21.8906C19.6166 21.9554 20.5734 22.144 21.5766 22.5328C21.5814 22.624 21.6 22.7088 21.6 22.8C21.6 23.4072 21.4351 23.9672 21.1687 24.4687C21.9656 24.176 22.9392 24 24 24C25.0608 24 26.0345 24.1759 26.8313 24.4687C26.5649 23.9672 26.4 23.4072 26.4 22.8C26.4 22.7088 26.4209 22.624 26.4281 22.5328C27.4313 22.144 28.3881 21.9554 29.2641 21.8906C28.9905 22.109 28.8047 22.4326 28.8047 22.8094C28.8047 23.467 29.333 24 29.9906 24C30.6482 24 31.1813 23.467 31.1813 22.8094C31.1813 22.435 31.0025 22.1137 30.7313 21.8953C32.3873 22.0177 33.4879 22.4897 33.5719 22.5281C33.5791 22.6217 33.6 22.7064 33.6 22.8C33.6 24.7872 31.9872 26.4 30 26.4C29.5584 26.4 29.1443 26.3096 28.7531 26.1656C28.7699 26.2448 28.8 26.3184 28.8 26.4C28.8 27.7248 26.652 28.8 24 28.8C21.348 28.8 19.2 27.7248 19.2 26.4C19.2 26.3184 19.2301 26.2448 19.2469 26.1656C18.8557 26.3096 18.4416 26.4 18 26.4C16.0128 26.4 14.4 24.7872 14.4 22.8C14.4 22.7064 14.4209 22.6193 14.4281 22.5281C14.5121 22.4897 15.6128 22.0224 17.2688 21.9C17 22.1184 16.8188 22.4397 16.8188 22.8141C16.8212 23.4693 17.3518 24 18.0094 24C18.667 24 19.2 23.467 19.2 22.8094C19.2 22.4326 19.0142 22.109 18.7406 21.8906ZM14.4 36H33.6C33.6 36 33.5616 38.9634 31.2 40.2234V38.4H28.8V40.8H26.4V38.4H21.6V40.8H19.2V38.4H16.8V40.2234C14.4384 38.9634 14.4 36 14.4 36Z" />
</g>
<defs>
<clipPath id="clip0_4_67">
<rect width="48" height="48" />
</clipPath>
</defs>
</svg>
