<svg width="48" height="48" viewBox="0 0 48 48"  xmlns="http://www.w3.org/2000/svg">
<path d="M12.4747 3C11.2 3 10.1656 4.03747 10.1656 5.31579V12.9009C7.2579 12.203 4.46075 11.2916 1.85812 10.1419L0 14.3845C2.52151 15.4984 5.18075 16.4053 7.91957 17.1345C7.41491 17.2522 6.93168 17.4105 6.48088 17.6365C5.40887 18.1741 4.54028 19.1233 4.12666 20.1604C3.2994 22.2345 3.88376 24.1649 4.55962 25.8594C5.82372 29.0288 7.89807 31.636 8.18115 31.9881L12.7453 41.1472L12.7768 41.2015C13.6329 42.7043 14.9421 43.9938 16.466 45.0596C17.99 46.1255 19.7009 47 21.7112 47H26.3294C28.3393 47 30.0459 46.1253 31.57 45.0596C33.0942 43.9939 34.4074 42.7049 35.2637 41.2015L35.2953 41.1472L39.8594 31.9881C40.1425 31.636 42.2169 29.0288 43.481 25.8594C44.1568 24.1649 44.7412 22.2345 43.9139 20.1604C43.5003 19.1233 42.6317 18.1741 41.5597 17.6365C41.2119 17.4621 40.8433 17.3336 40.4638 17.2249C43.0668 16.554 45.5978 15.7324 48 14.7282L46.2231 10.4539C43.6073 11.5474 40.7961 12.4116 37.875 13.0683V5.31579C37.875 4.03747 36.8405 3 35.5659 3H12.4747ZM10.1656 17.6817C19.1538 19.7027 28.8948 19.7299 37.875 17.831V21.5263C38.7891 21.5263 39.3033 21.6839 39.4941 21.7796C39.6849 21.8753 39.6101 21.8306 39.6294 21.8791C39.6681 21.9761 39.6752 22.9404 39.1965 24.1406C38.2391 26.5411 36.071 29.3421 36.071 29.3421L35.9177 29.5366L32.8148 35.7603C32.3828 34.7458 31.6643 33.849 30.6861 33.0374C29.1186 31.737 26.8332 30.7895 24.0203 30.7895C21.2074 30.7895 18.922 31.737 17.3545 33.0374C16.3763 33.849 15.6578 34.7458 15.2258 35.7603L12.1229 29.5366L11.9696 29.3421C11.9696 29.3421 9.80154 26.5411 8.84412 24.1406C8.36541 22.9404 8.37249 21.9761 8.41116 21.8791C8.43049 21.8306 8.35567 21.8752 8.54646 21.7796C8.73726 21.6839 9.25153 21.5263 10.1656 21.5263V17.6817ZM14.8109 19.2105C13.5201 19.2105 12.4747 20.3886 12.4747 21.8429V23.5255C12.4747 24.9798 13.5201 26.1579 14.8109 26.1579H15.5505C18.6309 26.1579 21.7112 24.2259 21.7112 21.8429C21.7112 20.3886 20.668 19.2105 19.3795 19.2105H14.8109ZM28.5889 19.2105C27.3397 19.2105 26.3294 20.3886 26.3294 21.8429C26.3294 24.2259 29.3106 26.1579 32.2916 26.1579H33.0178C34.267 26.1579 35.2773 24.9798 35.2773 23.5255V21.8429C35.2773 20.3886 34.267 19.2105 33.0178 19.2105H28.5889ZM24.0203 35.4211C25.8256 35.4211 27.0039 35.9908 27.7456 36.6061C28.4872 37.2214 28.6385 38.0539 28.6385 37.7368V40.0526H19.402V37.7368C19.402 38.0539 19.5534 37.2214 20.295 36.6061C21.0367 35.9908 22.2149 35.4211 24.0203 35.4211Z" />
</svg>
