<svg width="48" height="48" viewBox="0 0 48 48"  xmlns="http://www.w3.org/2000/svg">
<g clip-path="url(#clip0_3_58)">
<path d="M24 0C14.4 0 0 7.2 0 43.2H11.3484C14.7326 46.1779 19.1557 48 24 48C28.8443 48 33.2674 46.1779 36.6516 43.2H48C48 7.2 33.6 0 24 0ZM14.4 21.6H33.6C36.252 21.6 38.4 23.748 38.4 26.4V28.8C38.4 36.7814 31.9814 43.2 24 43.2C16.0187 43.2 9.6 36.7814 9.6 28.8V26.4C9.6 23.748 11.748 21.6 14.4 21.6Z" />
</g>
<defs>
<clipPath id="clip0_3_58">
<rect width="48" height="48" />
</clipPath>
</defs>
</svg>
