<svg width="48" height="48" viewBox="0 0 48 48"  xmlns="http://www.w3.org/2000/svg">
<path d="M44.8511 4.48502C44.5529 4.30284 37.3809 0 24 0C10.6191 0 3.44711 4.30284 3.14889 4.48502L2 5.18977V24.9996C2 30.1774 8.38489 44.5889 23.4671 47.8849L24 48L24.5329 47.8849C39.6151 44.5889 46 30.175 46 24.9972V5.18977L44.8511 4.48502ZM13 5.99281C14.3567 5.80583 15.7036 5.96884 16.96 6.28286C17.9476 6.54654 18.8544 6.88694 19.798 7.32801C20.0229 7.39513 20.2233 7.49101 20.4164 7.61566C20.4922 7.65641 20.5607 7.67559 20.6364 7.71874L20.6144 7.7475C21.1742 8.18378 21.5556 8.831 21.5556 9.58849C21.5556 10.9117 20.4604 11.9856 19.1111 11.9856C18.5342 11.9856 18.0258 11.7603 17.6078 11.4319L17.5833 11.4606C17.554 11.4223 17.5002 11.3791 17.466 11.3384C17.4098 11.2881 17.3609 11.2329 17.3096 11.1754C16.8109 10.6241 16.1558 10.0416 15.508 9.5813C14.7209 9.03476 13.88 8.60088 13 8.38993C11.1911 8.00399 8.87867 8.62006 6.88889 9.58849C8.45333 7.9992 10.3062 6.47703 13 5.99281ZM21.5556 16.7799C20.1524 18.2277 17.95 19.177 15.4444 19.177C12.9389 19.177 10.7364 18.2277 9.33333 16.7799C10.7364 15.332 12.9389 14.3827 15.4444 14.3827C17.95 14.3827 20.1524 15.332 21.5556 16.7799ZM26.4444 43.1482L24 45.5453L21.5556 43.1482V38.354H26.4444V43.1482ZM36.2956 27.96L34.9707 29.8178C34.7482 30.1342 34.5258 30.4195 34.2789 30.7335C33.9636 31.1099 33.6116 31.4646 33.2131 31.7691C31.6462 33.0252 29.4658 33.6053 27.3709 33.2984C26.3222 33.1522 25.3078 32.7759 24.3911 32.2365C24.2493 32.1502 24.1296 32.0328 23.9951 31.9369C23.8607 32.0304 23.7433 32.1502 23.6016 32.2341C22.6873 32.7735 21.6729 33.1522 20.6242 33.2936C18.5318 33.6029 16.3538 33.018 14.7869 31.7643C14.3884 31.4598 14.0389 31.1051 13.7236 30.7287C13.4742 30.4147 13.2542 30.1294 13.0318 29.813L11.7069 27.9576C10.8709 26.6728 10.0251 25.3975 9.33333 23.9712C10.7878 24.6496 12.0882 25.479 13.396 26.2988L15.288 27.5981L16.2071 28.2597C16.432 28.4083 16.6716 28.5234 16.9062 28.6312C17.8644 29.0388 18.8813 29.0843 19.7711 28.8326C20.2136 28.7008 20.6364 28.521 20.9958 28.2549C21.1767 28.1254 21.3527 27.9912 21.5091 27.833L22.2693 27.0707L23.9951 25.34L25.7258 27.0707L26.486 27.8306C26.6424 27.9864 26.8184 28.1231 27.0018 28.2501C27.3611 28.5162 27.7816 28.7008 28.2264 28.8278C29.1162 29.0819 30.1307 29.0292 31.0864 28.6264C31.3211 28.521 31.5582 28.4035 31.7856 28.2549L32.7047 27.5933L34.5991 26.294C35.9093 25.4766 37.2098 24.6472 38.6667 23.9712C37.9773 25.3999 37.1316 26.6752 36.2956 27.96ZM32.5556 19.177C30.05 19.177 27.8476 18.2277 26.4444 16.7799C27.8476 15.332 30.05 14.3827 32.5556 14.3827C35.0611 14.3827 37.2636 15.332 38.6667 16.7799C37.2636 18.2277 35.0611 19.177 32.5556 19.177ZM35 8.38993C34.12 8.60088 33.2791 9.03476 32.492 9.5837C31.8442 10.0416 31.1891 10.6264 30.6904 11.1778C30.6391 11.2353 30.5902 11.2881 30.534 11.3408C30.4998 11.3815 30.4484 11.4223 30.4167 11.463L30.3947 11.4343C29.9742 11.7603 29.4658 11.9856 28.8889 11.9856C27.5396 11.9856 26.4444 10.9117 26.4444 9.58849C26.4444 8.831 26.8258 8.18378 27.3856 7.74511L27.3636 7.71634C27.4393 7.67319 27.5078 7.65402 27.5836 7.61326C27.7767 7.48861 27.9771 7.39273 28.202 7.32561C29.1431 6.88454 30.05 6.54415 31.04 6.28046C32.2964 5.96884 33.6433 5.80583 35 5.99281C37.6938 6.47703 39.5467 7.9992 41.1111 9.58849C39.1213 8.62006 36.8089 8.00399 35 8.38993Z" />
</svg>
